<svg version="1.1" id="Layer_1" xmlns="http://www.w3.org/2000/svg" xmlns:xlink="http://www.w3.org/1999/xlink" x="0px" y="0px"
	 width="100%" viewBox="0 0 500 150" enable-background="new 0 0 500 150" xml:space="preserve">

<path fill="#1A2742" opacity="1.000000" stroke="none" 
	d="
M94.031921,87.988548 
	C98.133904,81.720528 98.794884,75.554482 96.742104,68.633904 
	C95.883507,65.739326 96.166679,61.726177 97.559830,59.078930 
	C103.508789,47.774776 110.066139,36.790787 116.576447,25.383528 
	C118.554474,26.383936 119.783195,27.005371 121.343071,27.794292 
	C117.328514,35.437138 113.375130,42.702496 109.683617,50.098557 
	C107.760368,53.951824 105.765587,57.911381 104.800896,62.055210 
	C104.057732,65.247505 104.931656,68.801346 104.976143,72.195869 
	C105.026588,76.044151 106.168282,80.441376 104.723045,83.647758 
	C98.715805,96.975319 92.061752,110.021263 85.342041,123.013832 
	C81.651657,130.149185 73.599503,132.634689 64.980522,129.937057 
	C50.110840,125.283066 40.465874,112.950813 40.005363,97.313713 
	C39.306911,73.596985 49.136993,54.129227 65.028374,37.282372 
	C66.118805,36.126381 67.806877,35.534134 69.217010,34.679714 
	C68.676605,33.997402 68.136208,33.315090 67.595802,32.632774 
	C65.996468,33.620445 64.191452,34.384098 62.831615,35.632618 
	C54.790020,43.015938 48.040474,51.392391 43.456821,61.402061 
	C42.249119,64.039421 40.784382,66.559082 38.881489,70.195740 
	C33.950497,57.352646 34.386433,46.332008 41.728428,36.014694 
	C49.152821,25.581596 59.739407,19.394560 71.304558,14.675452 
	C80.388283,10.968881 89.896446,9.245018 99.667686,10.168060 
	C104.128510,10.589454 108.483551,12.130481 112.896515,13.817811 
	C102.532562,22.522978 97.302979,33.906803 91.831032,45.133228 
	C90.446960,47.972836 88.963882,50.764278 87.519730,53.574474 
	C81.684380,64.929550 72.619926,71.762527 60.094246,74.850029 
	C48.031624,77.823387 47.224468,75.793694 47.049271,92.119431 
	C46.935501,102.720795 51.834290,111.030281 60.795830,116.685799 
	C69.350983,122.084846 77.029716,120.153419 81.896057,111.352531 
	C86.080673,103.784569 89.900742,96.015030 94.031921,87.988548 
z"/>
<path fill="#CC6D0D" opacity="1.000000" stroke="none" 
	d="
M152.086060,34.944515 
	C172.305756,57.300816 171.774323,95.482529 151.111877,118.282501 
	C134.095688,137.059021 113.232201,144.634384 88.196327,140.598251 
	C86.438217,140.314819 84.714027,139.821030 82.925415,139.413971 
	C82.987419,138.502441 82.876595,137.960052 83.071976,137.571762 
	C91.744087,120.336586 100.435333,103.111023 109.144730,85.894646 
	C111.220589,81.791183 114.742363,79.944267 118.959229,78.142334 
	C122.753197,76.521111 126.470291,73.148018 128.621567,69.582451 
	C133.072159,62.205975 136.474731,54.195370 140.273849,46.428703 
	C141.433044,44.058933 142.479660,41.634102 143.676346,39.019234 
	C146.098694,39.820095 148.687683,39.804733 147.176163,43.471531 
	C142.871429,53.914345 138.719452,64.420029 134.463058,74.882942 
	C132.677856,79.271294 129.627029,82.390526 125.030724,83.877556 
	C119.455345,85.681343 115.966507,89.437706 113.484955,94.789253 
	C108.325241,105.916359 102.663422,116.810631 97.181633,127.853676 
	C111.258064,132.644257 136.195663,122.001007 148.226105,106.418884 
	C164.594162,85.218597 165.213730,58.806488 150.137421,35.353176 
	C150.955765,34.961933 151.520920,34.953224 152.086060,34.944515 
z"/>
<path fill="#EFA211" opacity="1.000000" stroke="none" 
	d="
M312.064209,75.855209 
	C311.992432,73.913414 311.920685,72.442055 311.823364,70.447006 
	C306.213043,70.447006 300.801971,70.447006 295.104980,70.447006 
	C295.104980,68.480850 295.104980,67.051071 295.104980,65.252686 
	C312.105286,65.252686 328.988861,65.252686 345.861267,65.252686 
	C347.626617,69.196472 345.654266,70.552559 342.047058,70.824654 
	C342.047058,78.358742 342.047058,85.652664 342.047058,93.291275 
	C340.017731,93.291275 338.288818,93.291275 336.009888,93.291275 
	C336.009888,85.832672 336.009888,78.426636 336.009888,70.365982 
	C330.714325,70.365982 325.931580,70.126564 321.204681,70.534340 
	C320.023132,70.636269 319.021393,72.822197 318.348480,74.541405 
	C323.139374,75.327164 327.979797,74.169411 330.063080,79.401772 
	C331.926514,84.081848 330.125732,88.091484 327.443665,92.204102 
	C325.794098,91.330505 324.356049,90.568939 322.613831,89.646278 
	C323.138031,88.133171 324.063660,86.747299 323.957031,85.446014 
	C323.821686,83.793777 322.848816,82.210182 322.237091,80.596985 
	C320.955811,81.988815 318.933899,83.208145 318.560486,84.811424 
	C317.944336,87.456978 318.393219,90.350571 318.393219,93.388451 
	C316.208435,93.388451 314.592682,93.388451 312.622650,93.388451 
	C312.308777,91.951843 311.971313,90.407150 311.587860,88.651909 
	C306.470215,89.797508 300.817413,91.046219 297.820557,85.519836 
	C296.550201,83.177208 296.887939,78.765579 298.325012,76.411652 
	C300.966461,72.084961 305.751892,72.179039 310.749512,73.474045 
	C310.614838,75.020828 310.493103,76.418961 310.364075,77.901070 
	C309.349335,78.002365 308.594177,77.872955 308.080048,78.166168 
	C306.300476,79.181129 304.604797,80.343155 302.877167,81.449203 
	C303.866669,82.361496 305.240845,84.233757 305.778412,84.018326 
	C307.994385,83.130280 310.169678,81.835709 311.904724,80.205948 
	C312.578400,79.573135 312.046753,77.657120 312.064209,75.855209 
z"/>
<path fill="#25314B" opacity="1.000000" stroke="none" 
	d="
M198.134796,67.508316 
	C191.921555,66.409317 190.061188,67.869232 189.946732,73.551292 
	C189.889847,76.375412 189.966171,79.201988 189.930954,82.026817 
	C189.883652,85.821648 191.619858,88.119202 195.495346,88.184792 
	C199.240479,88.248161 200.825500,86.064583 200.613586,81.933228 
	C198.954620,81.641945 197.246490,81.342033 195.208282,80.984169 
	C195.208282,79.507660 195.208282,77.973648 195.208282,76.191628 
	C199.036865,76.191628 202.641296,76.191628 206.246857,76.198143 
	C209.485397,87.190910 203.829361,95.018402 193.517014,93.823303 
	C187.998367,93.183731 184.103775,89.839066 183.642700,84.311630 
	C183.231903,79.386772 183.205353,74.311111 183.934097,69.440369 
	C184.821762,63.507404 190.614044,60.307568 197.301620,61.226376 
	C203.377151,62.061096 206.759232,65.872536 206.714706,72.121643 
	C204.953339,72.121643 203.185623,72.121643 201.454529,72.121643 
	C200.485229,70.680573 199.484711,69.193077 198.134796,67.508316 
z"/>
<path fill="#1F2B46" opacity="1.000000" stroke="none" 
	d="
M388.495667,66.574417 
	C381.611908,75.351151 381.613312,75.350281 387.441223,84.744423 
	C389.073608,87.375687 390.695221,90.013618 392.621918,93.134689 
	C381.464355,95.389297 382.615326,84.314598 376.927155,80.709930 
	C371.856720,83.452354 375.068756,88.883469 373.563721,93.241165 
	C371.931213,93.241165 370.177399,93.241165 367.983154,93.241165 
	C367.983154,82.953667 367.983154,72.592758 367.983154,61.843601 
	C369.780609,61.843601 371.643524,61.843601 373.950989,61.843601 
	C373.950989,65.860374 373.950989,69.763664 373.950989,73.909828 
	C380.647614,70.668587 381.184662,59.657143 391.917175,61.812790 
	C390.681519,63.546551 389.700867,64.922523 388.495667,66.574417 
z"/>
<path fill="#2A364F" opacity="1.000000" stroke="none" 
	d="
M211.242523,84.908348 
	C211.242554,76.974281 211.242554,69.526657 211.242554,61.749542 
	C213.668304,61.749542 215.548447,61.749542 217.828186,61.749542 
	C217.828186,64.933495 217.828186,67.857918 217.828186,70.885345 
	C228.348419,68.052284 231.885193,70.835960 231.899399,81.547775 
	C231.904419,85.342445 231.900192,89.137123 231.900192,93.274689 
	C229.572098,93.274689 227.692200,93.274689 225.188034,93.274689 
	C225.188034,88.785904 225.538208,84.465080 225.020172,80.250984 
	C224.805115,78.501656 222.735123,76.980370 221.508636,75.355377 
	C220.318695,77.026955 218.327087,78.597496 218.101089,80.390564 
	C217.586655,84.472183 217.938828,88.663025 217.938828,93.356216 
	C215.775620,93.453476 213.890396,93.538231 211.242508,93.657280 
	C211.242508,90.588318 211.242508,87.991554 211.242523,84.908348 
z"/>
<path fill="#1B2743" opacity="1.000000" stroke="none" 
	d="
M396.653625,61.681366 
	C398.507019,61.537647 399.971649,61.537647 401.793304,61.537647 
	C401.890350,63.442024 402.001465,65.041695 402.044891,66.643204 
	C402.085236,68.131439 402.053467,69.621643 402.053467,71.164215 
	C412.203918,67.893280 416.008453,70.690277 416.024811,81.258507 
	C416.030731,85.072060 416.025787,88.885635 416.025787,93.130463 
	C413.969696,93.130463 412.103699,93.130463 409.601959,93.130463 
	C409.601959,88.916565 409.951111,84.603485 409.438416,80.395416 
	C409.218475,78.589989 407.421600,75.822533 405.966125,75.558357 
	C402.783905,74.980766 402.044861,77.755508 402.053711,80.510178 
	C402.066956,84.640038 402.057129,88.769958 402.057129,93.228104 
	C399.976593,93.228104 398.230164,93.228104 396.264862,93.228104 
	C396.264862,82.798927 396.264862,72.312004 396.653625,61.681366 
z"/>
<path fill="#26324C" opacity="1.000000" stroke="none" 
	d="
M484.327637,70.544754 
	C488.337280,72.314339 489.693970,75.262665 489.649353,79.103622 
	C489.595734,83.716995 489.636688,88.331459 489.636688,92.999649 
	C484.495026,93.303886 479.871246,93.835419 475.256561,93.765602 
	C471.815704,93.713547 469.254272,91.911118 468.838043,88.080032 
	C468.396881,84.019310 470.103760,81.173874 474.044006,80.200645 
	C476.736969,79.535492 479.597931,79.550346 482.383820,79.261681 
	C482.222137,75.383583 480.512573,74.548141 476.840210,75.992287 
	C474.650909,76.853241 472.167206,76.965515 469.297852,77.513214 
	C471.273682,70.363953 475.729614,68.536308 484.327637,70.544754 
M475.356995,87.279930 
	C477.080017,87.753960 479.016449,88.933128 480.463501,88.495178 
	C481.795959,88.091888 482.602295,85.950203 483.640411,84.574287 
	C483.290161,84.173538 482.939911,83.772789 482.589661,83.372040 
	C479.917389,83.854546 476.471802,82.068695 475.356995,87.279930 
z"/>
<path fill="#232F49" opacity="1.000000" stroke="none" 
	d="
M435.940582,70.952896 
	C437.602264,73.609947 439.728363,75.987923 440.073090,78.600914 
	C440.694244,83.309174 440.248627,88.158188 440.248627,92.992485 
	C435.277496,93.290474 430.665741,93.820145 426.061157,93.763504 
	C422.318054,93.717461 419.791382,91.596939 419.519958,87.621895 
	C419.260193,83.817612 421.050385,81.109398 424.762848,80.225105 
	C427.601471,79.548958 430.582062,79.468758 433.746735,79.094215 
	C433.172821,75.107918 430.911896,74.999748 428.023529,75.779945 
	C425.567017,76.443481 423.061584,76.925865 419.972626,77.625473 
	C422.064911,70.165527 427.404205,68.225838 435.940582,70.952896 
M432.965698,87.514771 
	C433.338898,86.352386 433.712097,85.190010 434.216888,83.617798 
	C431.943420,83.617798 430.198730,83.240158 428.757629,83.739227 
	C427.637665,84.127106 426.896332,85.608223 425.986694,86.603439 
	C427.046478,87.430023 428.001801,88.620865 429.200104,88.964592 
	C430.110596,89.225777 431.330109,88.409576 432.965698,87.514771 
z"/>
<path fill="#232F49" opacity="1.000000" stroke="none" 
	d="
M238.295898,81.161316 
	C242.126450,80.253708 245.630737,79.557640 249.339493,78.820961 
	C248.930557,74.892517 246.564880,75.022522 243.706192,75.833191 
	C241.372040,76.495110 238.989014,76.984718 236.303009,77.628555 
	C236.860825,72.039505 240.034714,69.693428 245.758347,69.640419 
	C251.411057,69.588074 255.685440,72.467140 255.940536,77.035713 
	C256.235291,82.314392 256.009094,87.622154 256.009094,93.032982 
	C251.031372,93.304367 246.276230,94.047279 241.635529,93.600693 
	C239.501617,93.395348 236.299789,91.138878 235.902191,89.308533 
	C235.384506,86.925468 237.173386,84.041351 238.295898,81.161316 
M249.640106,85.386513 
	C247.877060,81.481155 245.104523,83.558197 242.805023,84.494316 
	C242.246155,84.721840 242.412430,86.730629 242.245285,87.920380 
	C244.430679,87.764664 246.621063,87.651642 248.794830,87.396767 
	C249.053436,87.366440 249.221268,86.562012 249.640106,85.386513 
z"/>
<path fill="#1D2944" opacity="1.000000" stroke="none" 
	d="
M451.271637,82.036148 
	C451.270905,85.985756 451.270905,89.455803 451.270905,93.246536 
	C449.144043,93.246536 447.403137,93.246536 445.284668,93.246536 
	C445.284668,85.739464 445.284668,78.192635 445.284668,70.546410 
	C449.664001,70.281471 454.025146,69.713562 458.364624,69.847511 
	C462.100677,69.962845 464.733032,72.389336 464.966187,76.140472 
	C465.314331,81.742035 465.056580,87.381256 465.056580,93.285355 
	C463.010559,93.285355 461.264801,93.285355 458.876648,93.285355 
	C458.876648,89.409035 458.901489,85.640396 458.868469,81.872269 
	C458.843750,79.054703 459.251312,75.575615 455.247070,75.424866 
	C451.217804,75.273170 451.350616,78.680588 451.271637,82.036148 
z"/>
<path fill="#CC6E0D" opacity="1.000000" stroke="none" 
	d="
M125.062553,45.187149 
	C121.877800,51.644535 118.861679,57.768444 115.784996,63.861774 
	C114.645195,66.119118 113.428520,68.732155 110.201530,67.244987 
	C107.027473,65.782211 107.953400,63.273945 109.145309,60.883392 
	C114.325691,50.493378 119.501076,40.100868 124.869522,29.325390 
	C127.141663,30.458244 129.007401,31.388470 131.290680,32.526875 
	C129.152969,36.854172 127.180069,40.847855 125.062553,45.187149 
z"/>
<path fill="#CC6E0D" opacity="1.000000" stroke="none" 
	d="
M131.943817,37.994308 
	C132.733551,36.526207 133.380203,35.398014 134.249100,33.882126 
	C136.267410,34.897980 138.110687,35.825733 140.490372,37.023472 
	C134.896286,48.259045 129.559082,59.231419 123.871513,70.019081 
	C123.289665,71.122681 120.608360,71.119400 118.901283,71.629761 
	C118.564903,69.881645 117.414459,67.755600 118.022476,66.445908 
	C122.415688,56.982704 127.164551,47.684608 131.943817,37.994308 
z"/>
<path fill="#1F2B46" opacity="1.000000" stroke="none" 
	d="
M267.642426,71.470642 
	C270.063354,70.764565 272.120300,70.086983 274.668945,69.247429 
	C274.962738,73.437157 275.747559,76.413719 270.710175,76.825867 
	C269.371185,76.935417 267.503113,79.893776 267.229370,81.744087 
	C266.681305,85.448235 267.066650,89.290489 267.066650,93.320465 
	C264.794250,93.320465 263.030060,93.320465 260.962219,93.320465 
	C260.962219,85.648514 260.962219,78.075195 260.962219,69.389954 
	C263.377563,70.196510 265.328003,70.847832 267.642426,71.470642 
z"/>
<path fill="#F0A71E" opacity="1.000000" stroke="none" 
	d="
M293.327759,77.738907 
	C294.605255,82.454185 292.943939,84.139832 288.453979,83.754677 
	C284.868500,83.447098 281.235565,83.692581 277.254211,83.692581 
	C277.254211,81.250549 277.254211,79.229805 277.254211,76.444450 
	C282.730957,76.771858 287.925751,77.082405 293.327759,77.738907 
z"/>
<path fill="#F0A71E" opacity="1.000000" stroke="none" 
	d="
M363.739258,80.887436 
	C362.877991,82.085670 362.060577,83.514084 361.173492,83.558739 
	C356.590607,83.789429 351.989868,83.665878 347.145264,83.665878 
	C347.145264,81.232887 347.145264,79.323349 347.145264,76.712448 
	C351.936890,76.712448 356.522858,76.493462 361.056366,76.883713 
	C362.050354,76.969276 362.857666,79.223686 363.739258,80.887436 
z"/>
<path fill="#D9924A" opacity="1.000000" stroke="none" 
	d="
M151.990387,34.619865 
	C151.520920,34.953224 150.955765,34.961933 149.971222,35.034122 
	C145.915680,31.618458 142.279556,28.139313 138.643417,24.660168 
	C139.134140,24.150778 139.624878,23.641390 140.115601,23.132002 
	C144.041977,26.853075 147.968353,30.574148 151.990387,34.619865 
z"/>

</svg>